Coordinates
version=1
nRows=19
nColumns=24
inDegrees=yes

Units are S.I. units (second, meters, Newtons, ...)
Angles are in degrees.

endheader
time	pelvis_tilt	pelvis_list	pelvis_rotation	pelvis_tx	pelvis_ty	pelvis_tz	hip_flexion_r	hip_adduction_r	hip_rotation_r	knee_angle_r	ankle_angle_r	subtalar_angle_r	mtp_angle_r	hip_flexion_l	hip_adduction_l	hip_rotation_l	knee_angle_l	ankle_angle_l	subtalar_angle_l	mtp_angle_l	lumbar_extension	lumbar_bending	lumbar_rotation
      0.49500000	      0.56631840	      0.96987627	      2.23510853	     -0.70571885	      0.98947815	      0.28819380	     25.38632033	      1.11244807	     -0.75997653	    -12.25807836	      4.50180834	    -12.51029284	     -0.07040417	    -15.49602304	      4.31926346	      3.09339368	     -6.66169174	     10.14921867	     -5.92361413	      0.33066170	     -2.25837663	      1.92543564	     -1.29046883
      0.49916667	      0.51298472	      0.96842824	      2.28907253	     -0.69975152	      0.98884830	      0.28849814	     25.32445790	      1.14964994	     -0.80309081	    -12.25513364	      4.38711781	    -12.56630296	     -0.09266302	    -15.41376471	      4.26484103	      2.94893708	     -7.41298110	     10.28130371	     -5.56331148	      0.43323032	     -2.14398584	      1.92700395	     -1.35825883
      0.50333333	      0.49592606	      0.94862870	      2.35311351	     -0.69372379	      0.98832219	      0.28878910	     25.19915918	      1.20439045	     -0.85112573	    -12.27213147	      4.22035510	    -12.61623037	     -0.09581694	    -15.36681457	      4.18694673	      2.84963733	     -8.17290020	     10.36865691	     -5.26189082	      0.55221906	     -2.06090291	      1.94662888	     -1.43193851
      0.50750000	      0.44503516	      0.93474848	      2.41245014	     -0.68768589	      0.98777420	      0.28909339	     25.12262685	      1.25625444	     -0.89136290	    -12.37366942	      4.02711870	    -12.68996747	     -0.08378764	    -15.25046131	      4.11901759	      2.75410899	     -8.99680551	     10.43099255	     -4.98810286	      0.68914791	     -1.94148198	      1.96531633	     -1.49211368
      0.51166667	      0.41779526	      0.91389797	      2.46260953	     -0.68161512	      0.98728765	      0.28941872	     25.01772635	      1.32166650	     -0.92236457	    -12.52464091	      3.79579810	    -12.78034826	     -0.05627677	    -15.13155483	      4.04144175	      2.62822830	     -9.86830763	     10.46074494	     -4.68809161	      0.86124030	     -1.84843198	      1.99430087	     -1.54768100
      0.51583333	      0.36081123	      0.87552549	      2.48810012	     -0.67551389	      0.98677477	      0.28979139	     24.95530003	      1.41884032	     -0.91532803	    -12.74686576	      3.55991287	    -12.95881986	      0.00001874	    -14.94505324	      3.94769394	      2.43384789	    -10.81395842	     10.48221708	     -4.34040429	      1.13734945	     -1.71977570	      2.04568001	     -1.60976687
      0.52000000	      0.35919346	      0.82938785	      2.55020020	     -0.66937675	      0.98641884	      0.29008446	     24.81247007	      1.50210953	     -0.99417636	    -12.96825197	      3.19323163	    -13.04522802	      0.02509798	    -14.82759459	      3.84776350	      2.41749523	    -11.73156259	     10.38126147	     -4.21655670	      1.27098778	     -1.65720759	      2.11947998	     -1.60894812
      0.52416667	      0.33090030	      0.75121552	      2.59059562	     -0.66319226	      0.98604547	      0.29050145	     24.66778600	      1.65111762	     -0.92930746	    -13.17599345	      2.92342187	    -13.41376459	      0.16862298	    -14.59456455	      3.68653431	      2.13359398	    -12.81394131	     10.33045167	     -3.68590104	      1.89698331	     -1.53108003	      2.20640600	     -1.65618620
      0.52833333	      0.27524820	      0.71217404	      2.61038140	     -0.65704247	      0.98565531	      0.29090386	     24.57644416	      1.75900607	     -0.85732106	    -13.44494776	      2.50159743	    -13.73307197	      1.08986598	    -14.33533903	      3.59570923	      2.01135056	    -13.87659633	     10.11745921	     -3.60580991	      5.80255277	     -1.39289299	      2.24916628	     -1.61579512
      0.53250000	      0.24815397	      0.65476283	      2.63731359	     -0.65083671	      0.98534993	      0.29125062	     24.47396671	      1.86226783	     -0.92711083	    -13.78445834	      2.08773624	    -13.74377494	      1.09743704	    -14.08875156	      3.48488379	      1.90728840	    -14.97113070	      9.86523715	     -3.44487073	      5.84131689	     -1.28256367	      2.34818107	     -1.63326029
      0.53666667	      0.16706010	      0.59177724	      2.67047071	     -0.64466473	      0.98499562	      0.29168146	     24.40154149	      1.98988433	     -0.86234788	    -14.08965318	      1.73410885	    -13.96829413	      1.12122240	    -13.69191376	      3.34617056	      1.69944514	    -16.24250564	      9.70106969	     -3.06567835	      5.97545831	     -1.10179489	      2.40061245	     -1.64482182
      0.54083333	      0.13926224	      0.50225277	      2.68665623	     -0.63845772	      0.98474945	      0.29212120	     24.27249115	      2.14896413	     -0.81896821	    -14.41216244	      1.32526633	    -14.23027696	      1.14419074	    -13.34503390	      3.18208240	      1.50775004	    -17.51180728	      9.40443416	     -2.78820905	      6.15983508	     -0.98648765	      2.51175730	     -1.61263266
      0.54500000	      0.08456218	      0.41389896	      2.69588841	     -0.63226538	      0.98449914	      0.29257911	     24.18298538	      2.30837817	     -0.76076382	    -14.76872862	      0.94096509	    -14.49936754	      1.16559997	    -12.92792678	      3.01898141	      1.31683390	    -18.84394087	      9.03452069	     -2.52685700	      6.39285433	     -0.84106106	      2.61981768	     -1.56957149
      0.54916667	      0.04520462	      0.30593445	      2.69810987	     -0.62607079	      0.98430302	      0.29306549	     24.07373772	      2.49178779	     -0.69846840	    -15.12866107	      0.57120230	    -14.78340513	      1.18541234	    -12.48472152	      2.82661808	      1.09973336	    -20.24195099	      8.60497791	     -2.26184362	      6.68441914	     -0.71202268	      2.74780417	     -1.51569243
      0.55333333	      0.01063744	      0.18415851	      2.69674755	     -0.61987869	      0.98415007	      0.29356684	     23.95845225	      2.69115067	     -0.62457342	    -15.49500532	      0.22104156	    -15.07390807	      1.20167738	    -12.00545771	      2.61202854	      0.86996350	    -21.69792089	      8.10077676	     -1.99248107	      7.04564390	     -0.58680717	      2.89531863	     -1.44766488
      0.55750000	      0.00562386	      0.04985825	      2.67668336	     -0.61372013	      0.98405484	      0.29411096	     23.82096072	      2.91796631	     -0.50807278	    -15.89059268	     -0.06079278	    -15.55995228	      1.39121384	    -11.52568837	      2.38045450	      0.62970926	    -23.17653472	      7.40129237	     -1.91574359	     13.02735158	     -0.51153937	      3.07544343	     -1.34815629
      0.56166667	     -0.00348456	     -0.08125731	      2.65908273	     -0.60755332	      0.98398789	      0.29463626	     23.69286690	      3.12142067	     -0.47761858	    -16.29265776	     -0.34352458	    -15.60424846	      1.38781554	    -10.99777099	      2.14407881	      0.38864249	    -24.73270767	      6.72589977	     -1.64072600	     13.09066884	     -0.42233250	      3.22097634	     -1.28387190
      0.56583333	     -0.01851459	     -0.22335278	      2.64066404	     -0.60143611	      0.98391998	      0.29517346	     23.58150416	      3.33989187	     -0.42054601	    -16.72260283	     -0.53943785	    -15.77006028	      1.37960429	    -10.41635849	      1.89185407	      0.16321414	    -26.35214775	      5.98541554	     -1.42628805	     13.21281958	     -0.33154849	      3.39482437	     -1.18904171
      0.57000000	     -0.03289629	     -0.38564043	      2.60425714	     -0.59537090	      0.98385823	      0.29575510	     23.48872771	      3.58875109	     -0.35172616	    -17.19027117	     -0.71354116	    -16.03649410	      1.35870642	     -9.78934268	      1.60784537	     -0.09631660	    -28.03630789	      5.21282898	     -1.19510958	     13.44956243	     -0.25653857	      3.59146782	     -1.08040195
